<mxfile host="app.diagrams.net" modified="2024-02-27T08:48:21.074Z" agent="Mozilla/5.0 (Windows NT 10.0; Win64; x64) AppleWebKit/537.36 (KHTML, like Gecko) Chrome/122.0.0.0 Safari/537.36" version="23.1.7" etag="FrVr2kqJyDpH_6wM0Xn9" type="github">
  <diagram name="第 1 页" id="Frv3WDfBBDTk2y8VyzfP">
    <mxGraphModel>
      <root>
        <mxCell id="0" />
        <mxCell id="1" parent="0" />
      </root>
    </mxGraphModel>
  </diagram>
</mxfile>
